<svg width="995" height="1448" viewBox="0 0 995 1448" fill="none" xmlns="http://www.w3.org/2000/svg">
<mask id="mask0_130_710" style="mask-type:alpha" maskUnits="userSpaceOnUse" x="0" y="0" width="995" height="1448">
<rect width="995" height="1448" fill="#D9D9D9"/>
</mask>
<g mask="url(#mask0_130_710)">
<g opacity="0.5" filter="url(#filter0_f_130_710)">
<path d="M661.176 402.473C729.475 485.668 458.63 605.084 464.142 704.608C472.332 852.493 737.315 987.522 614.715 1088.17C517.09 1168.32 400.266 917.943 282.99 910.254C153.872 901.788 -38.6012 1158.38 -127.575 1050C-208.163 951.837 41.7293 857.189 48.1979 740.091C55.3575 610.484 -171.373 459.103 -63.6189 370.641C59.1522 269.852 179.343 495.564 322.961 532.637C419.278 557.5 593.018 319.45 661.176 402.473Z" fill="#35ADA1"/>
</g>
</g>
<defs>
<filter id="filter0_f_130_710" x="-393.566" y="94.9468" width="1315.79" height="1259.03" filterUnits="userSpaceOnUse" color-interpolation-filters="sRGB">
<feFlood flood-opacity="0" result="BackgroundImageFix"/>
<feBlend mode="normal" in="SourceGraphic" in2="BackgroundImageFix" result="shape"/>
<feGaussianBlur stdDeviation="125" result="effect1_foregroundBlur_130_710"/>
</filter>
</defs>
</svg>
