<svg width="35" height="32" viewBox="0 0 35 32" fill="none" xmlns="http://www.w3.org/2000/svg">
<path fill-rule="evenodd" clip-rule="evenodd" d="M17.2155 0.000877343C18.1587 -0.00626851 18.6375 0.0294608 19.2806 0.136649C19.7451 0.215253 20.4311 0.35817 20.8027 0.458212C21.1743 0.551108 21.7745 0.7369 22.1247 0.872671C22.4748 1.00844 23.0893 1.27998 23.4824 1.47292C23.8754 1.67301 24.5328 2.05888 24.9473 2.33757C25.3617 2.61626 25.9906 3.09503 26.3407 3.4023C26.6909 3.70957 27.2268 4.23837 27.5198 4.57422C27.8127 4.91008 28.2701 5.48889 28.5345 5.86048C28.7989 6.23206 29.2562 7.01096 29.5492 7.60406C29.8422 8.19717 30.178 8.96892 30.2924 9.31907C30.4138 9.66921 30.5853 10.3338 30.6854 10.784C30.7926 11.2342 30.9069 11.9416 30.9498 12.3561C30.9855 12.7705 31.0212 13.2493 31.0212 13.7495H31.6501C32.1932 13.7495 32.3289 13.7781 32.7362 13.971C32.9935 14.0854 33.3579 14.3283 33.5437 14.4998C33.7724 14.707 33.9868 15.0072 34.4155 15.8861V20.6881L34.1511 21.2241C33.9868 21.5671 33.7724 21.8672 33.5437 22.0744C33.3579 22.2459 33.0078 22.4817 32.772 22.5889C32.5362 22.6961 32.1503 22.8104 31.9145 22.8319C31.6358 22.8676 31.3642 22.8462 31.1284 22.789C30.864 22.7175 30.6782 22.5961 30.4138 22.3317C30.1923 22.1101 30.0208 21.8529 29.9637 21.6814C29.9065 21.4742 29.8779 20.2522 29.8779 17.2152C29.8779 14.8285 29.8422 12.7562 29.8064 12.3918C29.7636 12.0416 29.6635 11.4414 29.5849 11.0698C29.5063 10.6982 29.3277 10.0551 29.1919 9.64063C29.049 9.22617 28.7274 8.49015 28.4773 7.99708C28.2201 7.50402 27.8127 6.81802 27.5555 6.46073C27.3054 6.10343 26.8266 5.53177 26.5051 5.18162C26.1763 4.83147 25.6547 4.32412 25.3403 4.05972C25.0259 3.80247 24.4971 3.40945 24.1612 3.18793C23.8254 2.97355 23.2323 2.6377 22.8392 2.43761C22.4462 2.24467 21.7888 1.96599 21.3743 1.82307C20.9599 1.6873 20.3168 1.50865 19.9452 1.43005C19.5736 1.35144 18.9733 1.2514 18.6232 1.20853C18.273 1.1728 17.6656 1.13707 17.2798 1.13707C16.901 1.13707 16.2079 1.18709 15.7434 1.24426C15.2861 1.30857 14.6001 1.43005 14.2285 1.53009C13.8569 1.62299 13.2781 1.80163 12.9422 1.92311C12.6064 2.04459 11.9633 2.33757 11.5131 2.57338C11.0629 2.8092 10.3912 3.21651 10.0196 3.48091C9.648 3.7453 9.0406 4.24551 8.66901 4.60281C8.29743 4.9601 7.80437 5.4746 7.58285 5.74614C7.36132 6.01768 6.99689 6.51789 6.78251 6.85375C6.56099 7.1896 6.21799 7.797 6.01076 8.21146C5.80353 8.62592 5.52484 9.28334 5.39622 9.67636C5.26759 10.0694 5.09609 10.6982 5.01748 11.0698C4.93888 11.4414 4.83884 12.0416 4.79596 12.3918C4.76023 12.7562 4.7245 14.8285 4.7245 17.2152C4.7245 20.2522 4.69592 21.4742 4.63875 21.6814C4.58159 21.8529 4.41009 22.1101 4.18857 22.3317C3.92417 22.5961 3.73838 22.7175 3.47398 22.789C3.23817 22.8462 2.96663 22.8676 2.68794 22.8319C2.45212 22.8104 2.06625 22.6961 1.83044 22.5889C1.59462 22.4817 1.24448 22.2459 1.05868 22.0744C0.830016 21.8672 0.615641 21.5671 0.18689 20.6881V15.8933L0.401265 15.4288C0.522745 15.1715 0.765704 14.8071 0.937204 14.6213C1.14443 14.3926 1.44456 14.1782 1.78756 14.0139C2.28062 13.7709 2.37352 13.7495 3.58117 13.7495V13.3922C3.58117 13.1921 3.6169 12.7276 3.65263 12.3561C3.6955 11.9845 3.79554 11.3413 3.87415 10.9269C3.9599 10.5124 4.1314 9.84071 4.26717 9.42626C4.40294 9.0118 4.75309 8.19002 5.04607 7.60406C5.34619 7.01096 5.80353 6.23206 6.06793 5.86048C6.33232 5.48889 6.77536 4.92437 7.04691 4.60995C7.32559 4.28839 7.8258 3.78818 8.16166 3.4952C8.49751 3.20222 9.07633 2.74488 9.44791 2.48049C9.8195 2.21609 10.5984 1.75876 11.1915 1.45863C11.7775 1.16565 12.5992 0.815504 13.0137 0.686879C13.4282 0.551108 14.1356 0.372462 14.5858 0.286711C15.036 0.200961 15.5362 0.100919 15.6934 0.0723358C15.8506 0.0366066 16.5366 0.00802319 17.2083 0.000877343H17.2155ZM1.83758 15.393C1.61606 15.6074 1.44456 15.8647 1.38739 16.0362C1.33023 16.2291 1.30164 16.9651 1.30164 18.2871C1.30164 19.6091 1.33023 20.3451 1.38739 20.5381C1.44456 20.7096 1.61606 20.9668 1.83758 21.1812C2.05196 21.4027 2.30921 21.5742 2.48071 21.6314C2.63792 21.6742 2.87373 21.7171 3.00236 21.7171C3.15956 21.7171 3.29533 21.66 3.40967 21.5385L3.58831 21.3598V15.2144C3.28104 14.9071 3.15956 14.8571 2.95948 14.8642C2.81656 14.8714 2.58075 14.9071 2.44498 14.95C2.30921 14.9929 2.03052 15.193 1.83758 15.393ZM31.0355 15.2072L31.0284 21.3598C31.3285 21.66 31.4643 21.7171 31.6143 21.7171C31.743 21.7171 31.9788 21.6742 32.136 21.6314C32.3075 21.5742 32.5647 21.4027 32.7791 21.1812C33.0006 20.9668 33.1721 20.7096 33.2293 20.5381C33.2865 20.3451 33.3151 19.6091 33.3151 18.2871C33.3151 16.9651 33.2865 16.2291 33.2293 16.0362C33.1721 15.8647 33.0006 15.6074 32.7791 15.393C32.5647 15.1715 32.3075 15 32.136 14.9429C31.9788 14.9 31.743 14.8571 31.6143 14.8571C31.4571 14.8571 31.3214 14.9167 31.207 15.0357L31.0355 15.2072ZM30.4567 23.425C30.5996 23.425 30.7354 23.4964 30.864 23.6251C31.0498 23.818 31.057 23.8323 31.0069 24.4611C30.9784 24.8184 30.9069 25.3186 30.8497 25.5687C30.7854 25.826 30.6497 26.2476 30.5496 26.4977C30.4496 26.7549 30.2209 27.2194 30.0351 27.5338C29.8207 27.9126 29.4777 28.3413 29.0275 28.7915C28.5845 29.2417 28.1415 29.6061 27.7413 29.8491C27.4054 30.0492 26.8695 30.3136 26.5479 30.4351C26.2192 30.5494 25.6761 30.6923 25.3331 30.7566C24.8687 30.8352 24.1612 30.8638 22.6534 30.8638C21.0528 30.8567 20.5954 30.8781 20.5954 30.9496C20.6026 30.9996 20.474 31.1854 20.3239 31.3569C20.1667 31.5355 19.9094 31.757 19.7451 31.8428C19.4664 31.9929 19.3735 32 17.88 32C16.3865 32 16.2936 31.9929 16.0149 31.8428C15.8506 31.757 15.6005 31.5498 15.4576 31.3926C15.3147 31.2282 15.1646 30.971 15.1146 30.8209C15.0646 30.6637 15.0217 30.4279 15.0217 30.285C15.0217 30.1492 15.0646 29.9063 15.1074 29.7491C15.1646 29.5776 15.3361 29.3275 15.5576 29.1059C15.7791 28.8844 16.0292 28.7129 16.2007 28.6629C16.3794 28.6057 17.0082 28.5771 17.88 28.5771C19.0305 28.57 19.3378 28.5914 19.6236 28.6986C19.8594 28.7844 20.0809 28.9344 20.2882 29.1631C20.4597 29.3489 20.5954 29.549 20.5954 29.6061C20.5954 29.7062 20.8884 29.7133 22.8678 29.6919C24.6829 29.6776 25.2117 29.649 25.5261 29.5561C25.7405 29.4918 26.0977 29.3775 26.3121 29.2989C26.5265 29.2203 26.9481 28.9916 27.2411 28.8058C27.5341 28.6129 27.97 28.2627 28.1986 28.0341C28.4344 27.7982 28.7774 27.3695 28.9704 27.0694C29.1633 26.7764 29.3848 26.3619 29.4634 26.1404C29.5492 25.926 29.6564 25.5759 29.7135 25.3544C29.7707 25.14 29.8422 24.6898 29.8636 24.3539C29.9065 23.8537 29.9422 23.7251 30.0708 23.5893C30.1709 23.4964 30.3209 23.425 30.4567 23.425ZM16.1722 30.285C16.165 30.4279 16.2293 30.5637 16.3437 30.678C16.5223 30.8567 16.5295 30.8567 17.8872 30.8567C19.2377 30.8567 19.2449 30.8567 19.4235 30.678C19.5307 30.5708 19.595 30.4208 19.595 30.285C19.595 30.1564 19.5307 30.0063 19.4164 29.892C19.2377 29.7205 19.2306 29.7133 17.88 29.7133C16.5295 29.7133 16.5152 29.7205 16.3437 29.892C16.2436 29.9992 16.1722 30.1564 16.1722 30.285ZM17.2726 7.99708C23.5467 7.98994 24.6186 8.00423 24.9758 8.09713C25.1974 8.16144 25.5547 8.29006 25.7619 8.39725C25.962 8.50444 26.3121 8.75455 26.5265 8.96177C26.7409 9.16186 27.0196 9.51915 27.1482 9.75496C27.2697 9.98363 27.4269 10.3624 27.4912 10.5982C27.5841 10.9698 27.5984 11.7701 27.5984 16.565C27.5984 21.2669 27.5841 22.1673 27.4912 22.5175C27.434 22.7461 27.2982 23.0963 27.1982 23.3035C27.091 23.5107 26.8409 23.8537 26.6337 24.0681C26.4265 24.2896 26.0692 24.5683 25.8405 24.6898C25.6118 24.8184 25.226 24.9685 24.9901 25.0328C24.6257 25.1257 23.9397 25.14 15.9149 25.14L14.8073 26.7907C14.1999 27.7053 13.6425 28.4771 13.5782 28.5128C13.5068 28.5414 13.371 28.57 13.2709 28.57C13.1709 28.57 13.0137 28.4914 12.9137 28.3913C12.8136 28.2913 12.735 28.1341 12.735 28.0198C12.735 27.884 13.1209 27.2409 13.9855 25.9475C14.8788 24.604 15.2789 24.061 15.4004 24.0324C15.4862 24.0181 17.6299 23.9895 24.7758 23.9609L25.1331 23.7751C25.3331 23.6751 25.5904 23.5107 25.7047 23.4107C25.8262 23.3178 26.0334 23.032 26.4193 22.3174V10.8125L26.1692 10.3624C26.0334 10.1051 25.8262 9.81928 25.7047 9.72638C25.5904 9.62634 25.3331 9.46198 24.7758 9.169H9.84093L9.48364 9.34765C9.2907 9.44769 8.99772 9.65492 8.84052 9.81213C8.68331 9.96934 8.46893 10.2623 8.19739 10.8125V22.3174L8.38318 22.6747C8.49037 22.8747 8.65472 23.132 8.74762 23.2463C8.84766 23.3678 9.1335 23.575 9.84093 23.9609L11.1558 23.9966C12.442 24.0324 12.4635 24.0395 12.5992 24.211C12.6778 24.3111 12.7421 24.4826 12.7421 24.5898C12.735 24.6969 12.6564 24.8684 12.5635 24.9613C12.3849 25.14 12.3706 25.14 11.2201 25.1471C10.3912 25.1471 9.93383 25.1114 9.62656 25.0328C9.39075 24.9685 9.01202 24.8184 8.7762 24.6898C8.54753 24.5683 8.19024 24.2896 7.98301 24.0681C7.78293 23.8537 7.52568 23.5107 7.42564 23.3035C7.31845 23.0963 7.18268 22.7461 7.12551 22.5175C7.03261 22.1673 7.01832 21.2669 7.01832 16.565C7.01832 11.8701 7.03261 10.9698 7.12551 10.6196C7.18268 10.3909 7.31845 10.0408 7.42564 9.83357C7.52568 9.62634 7.78293 9.28334 7.98301 9.06182C8.19024 8.84744 8.54753 8.56875 8.7762 8.44727C9.01202 8.31865 9.37645 8.16858 9.59083 8.11142C9.92669 8.01852 11.0486 8.00423 17.2726 7.99708ZM12.8422 16.0433C12.9208 16.0648 13.0566 16.1576 13.1495 16.2505C13.2924 16.4078 13.3067 16.4935 13.3067 17.1724C13.3067 17.8727 13.2924 17.937 13.1352 18.1013C13.0208 18.2157 12.8779 18.28 12.7421 18.28C12.5992 18.28 12.4563 18.2157 12.342 18.1013C12.1776 17.937 12.1633 17.8798 12.1633 17.1938C12.1633 16.6364 12.1919 16.422 12.2777 16.2934C12.342 16.2005 12.4635 16.1005 12.5492 16.0648C12.6278 16.0362 12.7636 16.0219 12.8422 16.0433ZM21.9889 16.0433C22.0675 16.0648 22.2033 16.1576 22.2962 16.2505C22.4391 16.4078 22.4534 16.4935 22.4534 17.1724C22.4534 17.8727 22.4391 17.937 22.2819 18.1013C22.1675 18.2157 22.0246 18.28 21.8888 18.28C21.7459 18.28 21.603 18.2157 21.4887 18.1013C21.3243 17.937 21.31 17.8798 21.31 17.1938C21.31 16.6364 21.3386 16.422 21.4244 16.2934C21.4887 16.2005 21.6102 16.1005 21.6959 16.0648C21.7745 16.0362 21.9103 16.0219 21.9889 16.0433ZM17.3083 18.2871C18.5017 18.2871 19.0376 18.3085 19.1663 18.3729C19.2592 18.4229 19.3878 18.5444 19.445 18.6373C19.5379 18.8016 19.5379 18.8588 19.4307 19.1375C19.3664 19.3161 19.1877 19.6091 19.0376 19.7806C18.8876 19.9592 18.5875 20.2022 18.3731 20.3165C18.0229 20.5166 17.93 20.5309 17.3083 20.5309C16.6867 20.5309 16.5938 20.5166 16.2436 20.3165C16.0292 20.2022 15.7363 19.9592 15.5791 19.7806C15.429 19.6091 15.2503 19.3161 15.186 19.1375C15.0788 18.8445 15.0788 18.8088 15.186 18.6444C15.2575 18.5444 15.379 18.4229 15.4719 18.3729C15.5862 18.3085 16.1007 18.2871 17.3083 18.2871Z" fill="url(#paint0_radial_12_1401)"/>
<defs>
<radialGradient id="paint0_radial_12_1401" cx="0" cy="0" r="1" gradientUnits="userSpaceOnUse" gradientTransform="translate(17.3012) rotate(61.8611) scale(36.2891 37.7288)">
<stop stop-color="#88F2E7"/>
<stop offset="0.796943" stop-color="#35ADA1"/>
</radialGradient>
</defs>
</svg>
