<svg width="37" height="32" viewBox="0 0 37 32" fill="none" xmlns="http://www.w3.org/2000/svg">
<path fill-rule="evenodd" clip-rule="evenodd" d="M2.27249 16.6831C2.46424 16.6744 2.62113 16.7441 2.7693 16.892C2.90875 17.0313 2.98719 17.2053 2.98719 17.3707C2.98719 17.5273 2.90875 17.7188 2.7693 17.8493C2.65599 17.9712 2.46424 18.0669 2.35093 18.0669C2.24634 18.0669 2.10689 18.1191 2.04588 18.1713C1.96744 18.2583 1.94129 19.703 1.94129 24.3329C1.94129 29.102 1.95872 30.4074 2.04588 30.4944C2.13304 30.5814 5.46249 30.5989 18.6844 30.5989C31.7844 30.5989 35.2271 30.5727 35.3056 30.4857C35.384 30.4074 35.4102 28.9627 35.4102 24.3329C35.4102 19.5638 35.3927 18.2583 35.3056 18.1713C35.2446 18.1104 35.1051 18.0669 35.0005 18.0669C34.8872 18.0669 34.7042 17.9712 34.5822 17.8493C34.4427 17.7101 34.3643 17.536 34.3643 17.3707C34.3643 17.1966 34.4514 17.0313 34.6083 16.8746C34.8175 16.6657 34.8872 16.6483 35.2794 16.7006C35.5409 16.7354 35.8547 16.8572 36.0551 16.9964C36.2469 17.1357 36.4909 17.4142 36.8134 18.0234L36.7611 30.8164L36.5432 31.1645C36.4212 31.3473 36.151 31.6171 35.5409 31.9913L1.81055 32L1.38347 31.7128C1.10457 31.53 0.877955 31.2864 0.546753 30.6424V24.4199C0.546753 20.582 0.581616 18.0756 0.633911 17.8667C0.686207 17.684 0.86924 17.3968 1.0697 17.1966C1.26145 17.0051 1.54908 16.8137 1.70596 16.7702C1.85413 16.7267 2.11561 16.6831 2.27249 16.6831ZM18.9808 0.00866836C19.7478 0.0260739 20.7065 0.0956959 21.1162 0.174021C21.5258 0.243643 22.2144 0.408995 22.6414 0.530834C23.0772 0.661375 23.8006 0.913755 24.2539 1.11392C24.7071 1.30538 25.3957 1.64479 25.7791 1.87106C26.1626 2.08863 26.7815 2.49766 27.1563 2.76744C27.5223 3.04593 28.1237 3.55939 28.4898 3.8988C28.8558 4.24691 29.3962 4.83 29.6838 5.18681C29.9715 5.54362 30.3898 6.1093 30.6077 6.44871C30.8256 6.77941 31.1917 7.43212 31.4183 7.88466C31.6362 8.3372 31.9674 9.12045 32.133 9.62521C32.2986 10.13 32.5252 10.948 32.6298 11.4528C32.8041 12.236 32.8303 12.6277 32.8303 14.1506C32.8303 15.6736 32.8041 16.0653 32.6298 16.8485C32.5252 17.3533 32.2986 18.1713 32.133 18.6761C31.9587 19.1808 31.6536 19.9467 31.4445 20.3731C31.2353 20.7996 30.8343 21.5132 30.5467 21.9396C30.2591 22.366 29.8582 22.9143 29.3091 23.5931L30.7995 23.6367C32.2637 23.6802 32.2899 23.6802 32.4555 23.8977C32.5514 24.0196 32.6298 24.2197 32.6211 24.3503C32.6211 24.4895 32.5252 24.6897 32.194 25.0291H5.16615L4.94826 24.8115C4.82624 24.6897 4.73036 24.4895 4.73036 24.3503C4.72165 24.2197 4.80009 24.0196 4.89596 23.8977C5.06156 23.6802 5.08771 23.6802 8.04239 23.5931L7.68504 23.158C7.48457 22.9143 7.08364 22.366 6.79602 21.9396C6.51711 21.5132 6.09004 20.7647 5.86342 20.2861C5.63681 19.8074 5.30561 18.9894 5.14001 18.4585C4.97441 17.9276 4.76523 17.1096 4.67807 16.6309C4.55605 15.9695 4.51247 15.3603 4.51247 14.1071C4.52118 12.8975 4.55605 12.2447 4.66935 11.6704C4.75651 11.2439 4.94826 10.4955 5.09643 10.0168C5.2446 9.53819 5.50607 8.81586 5.68039 8.40683C5.85471 7.9978 6.20334 7.33639 6.44739 6.92736C6.69143 6.51833 7.16209 5.83081 7.502 5.40438C7.83321 4.96924 8.42588 4.31653 8.8181 3.94231C9.2016 3.5768 9.84657 3.03723 10.2475 2.74133C10.6397 2.44544 11.337 2.0016 11.7902 1.74922C12.2434 1.49684 12.9756 1.14873 13.4026 0.983377C13.8384 0.809322 14.5793 0.565645 15.0586 0.435103C15.538 0.313265 16.305 0.156615 16.7582 0.0869932C17.2812 0.0173711 18.0918 -0.0174399 18.9808 0.00866836ZM15.3201 1.81014C14.9366 1.91457 14.2917 2.13214 13.882 2.28879C13.4724 2.45414 12.81 2.76744 12.409 2.99371C12.0168 3.21999 11.3631 3.64642 10.9709 3.93361C10.5874 4.22951 9.89015 4.8561 9.43692 5.32605C8.97498 5.8047 8.33873 6.57925 8.02496 7.0579C7.70247 7.53655 7.28411 8.25888 7.10107 8.66791C6.90933 9.07694 6.63913 9.78186 6.49096 10.2344C6.34279 10.6869 6.18591 11.2526 6.13361 11.4963C6.08132 11.7313 6.00288 12.236 5.95058 12.6016C5.907 12.9758 5.86342 13.6633 5.86342 14.1245C5.86342 14.5945 5.907 15.3081 5.9593 15.7171C6.01159 16.1262 6.15976 16.8833 6.29922 17.4142C6.42995 17.945 6.70015 18.7457 6.90061 19.1982C7.10107 19.6508 7.44099 20.3296 7.67632 20.7038C7.90293 21.078 8.269 21.6263 8.49561 21.9222C8.71351 22.2181 9.15802 22.7229 9.47179 23.0449L10.047 23.6367H27.3044C28.1934 22.7229 28.6554 22.192 28.9081 21.8526C29.1609 21.5132 29.5531 20.9301 29.771 20.5472C29.9976 20.1643 30.3201 19.5202 30.4944 19.1112C30.66 18.7022 30.9215 17.9189 31.061 17.3707C31.2004 16.8224 31.366 15.9956 31.4183 15.5431C31.4706 15.0905 31.488 14.229 31.4619 13.6285C31.4357 13.028 31.3486 12.2099 31.2701 11.8009C31.1917 11.3919 31.0087 10.6869 30.8605 10.2344C30.721 9.78186 30.4334 9.05083 30.2242 8.6244C30.0238 8.19796 29.6054 7.46693 29.3004 7.01439C28.9517 6.48352 28.3765 5.81341 27.7054 5.13459C27.0255 4.46448 26.3544 3.8901 25.8227 3.54199C25.3695 3.23739 24.6461 2.81966 24.2103 2.6195C23.7832 2.41063 23.0511 2.12344 22.5979 1.98419C22.1446 1.83625 21.4387 1.65349 21.029 1.57516C20.6106 1.49684 19.6955 1.41851 18.9372 1.39241C18.0133 1.375 17.3422 1.40111 16.8018 1.48814C16.3747 1.55776 15.7036 1.70571 15.3201 1.81014ZM18.6757 7.44952C18.9634 7.44952 19.1987 7.6758 22.2667 10.7392C25.3434 13.8025 25.5613 14.0375 25.5613 14.3247C25.5613 14.6119 25.3434 14.8469 22.2667 17.9189C19.1987 20.9823 18.9546 21.1999 18.6757 21.1999C18.3881 21.1999 18.1528 20.9736 15.0848 17.9102C11.9297 14.7598 11.7902 14.6206 11.8076 14.3247C11.8251 14.0549 12.1563 13.6981 15.1022 10.7392C18.1615 7.66709 18.3968 7.44952 18.6757 7.44952ZM13.4462 14.2812L18.6757 19.5028L23.9052 14.2812C19.8872 10.2692 18.7019 9.10305 18.6757 9.10305C18.6496 9.10305 17.4642 10.2692 16.0348 11.6878L13.4462 14.2812Z" fill="url(#paint0_radial_12_1407)"/>
<defs>
<radialGradient id="paint0_radial_12_1407" cx="0" cy="0" r="1" gradientUnits="userSpaceOnUse" gradientTransform="translate(18.6801) rotate(60.4612) scale(36.7807 39.441)">
<stop stop-color="#88F2E7"/>
<stop offset="0.796943" stop-color="#35ADA1"/>
</radialGradient>
</defs>
</svg>
