<svg width="24" height="24" viewBox="0 0 24 24" fill="none" xmlns="http://www.w3.org/2000/svg">
<path fill-rule="evenodd" clip-rule="evenodd" d="M21.0762 0.00292932C22.1734 -0.0064482 22.3234 0.00292932 22.6001 0.087327C22.7689 0.138903 22.9892 0.232679 23.0924 0.293632C23.1955 0.354586 23.3737 0.504627 23.4862 0.631223C23.5988 0.75782 23.7394 0.964125 23.8004 1.09541C23.866 1.23138 23.9364 1.50802 23.9645 1.75184C24.002 2.02378 24.0067 2.55361 23.9926 3.25224C23.9739 3.84771 23.9317 4.61667 23.8895 4.96364C23.852 5.3106 23.7769 5.85919 23.7207 6.18271C23.6644 6.50624 23.5425 7.09702 23.444 7.49557C23.3456 7.89411 23.1908 8.4427 23.1018 8.71464C23.0127 8.98659 22.8486 9.43671 22.736 9.72273C22.6235 10.0087 22.3844 10.5339 22.2015 10.8949C22.0187 11.256 21.7326 11.767 21.5685 12.0343C21.3997 12.3015 21.095 12.747 20.8887 13.0236C20.6824 13.3049 20.2979 13.7832 20.0353 14.088C19.7727 14.3974 19.257 14.9413 18.8866 15.3024C18.5162 15.6681 18.0848 16.076 17.63 16.4745L17.4893 18.3032C17.4143 19.3066 17.3252 20.2162 17.2971 20.3193C17.2689 20.4225 17.2033 20.5866 17.1564 20.6804C17.1048 20.7788 16.9782 20.957 16.8657 21.0789C16.7391 21.2196 16.0264 21.7213 14.7933 22.5371C13.7618 23.217 12.8193 23.8265 12.6927 23.8875C12.5286 23.9719 12.3973 24 12.1816 24C11.9378 23.9953 11.8347 23.9672 11.6096 23.8453C11.4596 23.7609 11.2767 23.6202 11.2017 23.5311C11.1314 23.442 11.0376 23.2732 11.0001 23.156C10.9579 23.0388 10.8313 22.3214 10.7141 21.5618C10.5968 20.8023 10.4937 20.1318 10.4796 20.0708C10.4562 19.977 10.4374 19.9677 10.1842 19.9911C10.0389 20.0052 9.79975 19.9958 9.65909 19.9677C9.51843 19.9395 9.28399 19.8645 9.14332 19.7942C8.93233 19.6957 8.50565 19.2925 6.7333 17.5342C5.55174 16.3573 4.49208 15.2695 4.37486 15.1148C4.26233 14.9601 4.13573 14.7303 4.08884 14.599C4.04195 14.4537 4.00913 14.2099 4.00913 13.952C4.00913 13.6285 3.99507 13.5394 3.9388 13.5206C3.90129 13.5112 3.23549 13.4034 2.46184 13.2862C1.6882 13.169 0.96144 13.0424 0.844221 13.0002C0.727002 12.9627 0.558206 12.8689 0.46912 12.7986C0.380034 12.7235 0.24406 12.55 0.164351 12.4141C0.042443 12.1937 0.0236879 12.114 0.0236879 11.8092C0.0236879 11.542 0.0518205 11.4107 0.126841 11.27C0.178417 11.1669 0.783267 10.2385 1.46314 9.20696C2.27429 7.9832 2.78068 7.26113 2.92134 7.12984C3.04325 7.022 3.22142 6.89541 3.3152 6.84383C3.41366 6.79694 3.57777 6.7313 3.68092 6.70317C3.78407 6.67503 4.689 6.58595 7.5257 6.36558L7.78359 6.07487C7.92425 5.91545 8.32279 5.49347 8.67445 5.13243C9.02142 4.77609 9.53718 4.28377 9.8232 4.03995C10.1092 3.79145 10.5406 3.43979 10.7844 3.25224C11.0282 3.06469 11.4408 2.77867 11.6987 2.60988C11.9566 2.44108 12.3786 2.1832 12.6365 2.04254C12.8943 1.89719 13.3445 1.67213 13.6305 1.54084C13.9212 1.41425 14.3854 1.22201 14.662 1.11417C14.9433 1.01101 15.4216 0.851595 15.731 0.762508C16.0405 0.673422 16.5703 0.537448 16.9032 0.457739C17.2361 0.382719 17.8832 0.270189 18.3333 0.209235C18.7834 0.143592 19.3132 0.0732607 19.5055 0.0498169C19.6977 0.0263731 20.4057 0.00292932 21.0762 0.00292932ZM19.1069 1.52209C18.7459 1.5596 18.1645 1.644 17.8175 1.70964C17.4706 1.77059 16.8657 1.91125 16.4812 2.01441C16.0921 2.11756 15.5013 2.30511 15.1684 2.43171C14.8355 2.5583 14.3291 2.7693 14.0431 2.90058C13.7571 3.03187 13.2647 3.29913 12.9412 3.49137C12.6177 3.68361 12.1254 4.01182 11.8394 4.22281C11.5533 4.43381 11.1314 4.76202 10.9016 4.95895C10.6719 5.15119 10.1749 5.62006 9.79975 5.99516C9.42465 6.37026 8.92764 6.90478 8.69789 7.18142C8.46346 7.46275 8.09773 7.93631 7.88674 8.23639C7.67105 8.53647 7.3616 9.00535 7.19749 9.2773C7.03807 9.54924 6.82239 9.92434 6.72393 10.1119L6.54106 10.4542L13.5508 17.4592C14.0759 17.1779 14.4463 16.9669 14.7136 16.8074C14.9808 16.6527 15.445 16.3433 15.7545 16.1229C16.0592 15.9025 16.5375 15.5368 16.8188 15.3024C17.0955 15.0726 17.63 14.5756 18.0051 14.2005C18.3802 13.8254 18.8491 13.3284 19.0413 13.0986C19.2382 12.8689 19.5664 12.4469 19.7774 12.1609C19.9884 11.8749 20.3166 11.3825 20.5089 11.059C20.7011 10.7355 20.9637 10.2526 21.0903 9.98061C21.2169 9.70866 21.4279 9.20227 21.5592 8.85531C21.6904 8.50834 21.8827 7.90349 21.9858 7.51901C22.089 7.12984 22.2297 6.52968 22.2906 6.18271C22.3562 5.83575 22.4453 5.24496 22.4875 4.86986C22.5438 4.40567 22.5719 3.8102 22.5719 2.98967C22.5766 2.10349 22.5626 1.76121 22.5157 1.67682C22.4828 1.61586 22.4125 1.53146 22.3516 1.49395C22.2672 1.43769 22.0562 1.42362 21.2638 1.41893C20.7199 1.41425 20.1619 1.42362 20.0212 1.433C19.8806 1.44238 19.468 1.47989 19.1069 1.52209ZM3.90129 8.13793C3.84503 8.18481 3.28238 9.00535 2.65408 9.95716C2.0211 10.9137 1.51002 11.6967 1.51471 11.7061C1.5194 11.7108 2.12425 11.8092 2.86039 11.9264C3.59652 12.039 4.23888 12.1374 4.29046 12.1374C4.36548 12.1374 4.40299 12.0812 4.47332 11.8702C4.52021 11.7201 4.63274 11.3966 4.72182 11.1528C4.8156 10.909 4.99846 10.4636 5.13444 10.1682C5.27041 9.87277 5.49078 9.42733 5.62676 9.18352C5.76273 8.9397 5.99717 8.54116 6.14721 8.30672L6.42384 7.87067C6.1519 7.88004 5.608 7.92224 5.04066 7.96913C4.20606 8.03946 3.99038 8.06759 3.90129 8.13793ZM5.59862 13.0517C5.50954 13.4128 5.42983 13.8207 5.42514 13.952L5.41576 14.2005L9.79975 18.5845C10.1467 18.5751 10.4796 18.5142 10.7609 18.4485C11.047 18.3782 11.4783 18.261 11.7221 18.1812L12.1676 18.0359C7.38973 13.2487 5.99248 11.8561 5.9831 11.8561C5.97372 11.8561 5.91746 11.978 5.86588 12.1281C5.80962 12.2734 5.6924 12.6907 5.59862 13.0517ZM14.6995 18.4344C14.4182 18.5845 13.9212 18.8283 13.5976 18.969C13.2741 19.1096 12.7537 19.3159 12.4395 19.4238C11.9566 19.5832 11.8628 19.6301 11.8628 19.7098C11.8628 19.7614 11.9566 20.4037 12.0738 21.1399C12.191 21.876 12.2895 22.4808 12.2942 22.4855C12.3035 22.4902 13.1053 21.9651 14.0806 21.3227C15.0699 20.671 15.8717 20.1083 15.8998 20.0521C15.928 19.9911 15.9936 19.4285 16.0405 18.7955C16.0921 18.1625 16.1202 17.6327 16.1108 17.6186C16.1014 17.6045 15.8951 17.7218 15.6513 17.8765C15.4122 18.0312 14.9855 18.2797 14.6995 18.4344ZM3.02449 16.0807C3.1042 16.076 3.24018 16.1135 3.32926 16.1604C3.41835 16.2026 3.54026 16.3151 3.60121 16.4042C3.66217 16.5027 3.70436 16.6386 3.70436 16.7465C3.70436 16.8403 3.67623 16.9903 3.63872 17.0747C3.60121 17.1591 3.02449 17.7686 2.31649 18.472C1.28965 19.4894 1.02239 19.7285 0.891108 19.7567C0.802022 19.7754 0.656671 19.7754 0.576962 19.7614C0.492564 19.7473 0.347212 19.6629 0.253437 19.5832C0.154973 19.4894 0.0705755 19.3581 0.042443 19.255C0.0143104 19.1424 0.0189992 19.0112 0.0471317 18.9033C0.0846418 18.758 0.333146 18.486 1.36936 17.4498C2.07268 16.7465 2.70097 16.151 2.76661 16.1276C2.83225 16.1041 2.94947 16.0807 3.02449 16.0807ZM5.10161 18.1859C5.18132 18.1859 5.32199 18.2141 5.40638 18.2469C5.48609 18.2844 5.60331 18.3735 5.66427 18.4485C5.72053 18.5235 5.78148 18.6501 5.79555 18.7251C5.81431 18.8049 5.80962 18.9502 5.79086 19.0534C5.76273 19.2222 5.55642 19.4425 3.50275 21.5056C2.26023 22.7528 1.16306 23.8265 1.06928 23.8875C0.956751 23.9578 0.820777 24 0.703558 24C0.591028 24 0.445676 23.9578 0.347212 23.8968C0.253437 23.8359 0.136218 23.7093 0.0893306 23.6155C0.0377542 23.5171 0.000244141 23.3764 0.000244141 23.2967C0.000244141 23.2217 0.042443 23.0763 0.0893306 22.9825C0.140907 22.8841 1.17243 21.8197 2.42433 20.5678C3.65748 19.3394 4.7312 18.2985 4.80622 18.261C4.88593 18.2188 5.01722 18.1859 5.10161 18.1859ZM7.21156 20.2959C7.3194 20.2959 7.47413 20.3287 7.54915 20.3662C7.62886 20.4037 7.73201 20.4928 7.78359 20.5678C7.83985 20.6382 7.89143 20.7601 7.90549 20.8351C7.91956 20.9148 7.91956 21.0508 7.9008 21.1399C7.87267 21.2758 7.63354 21.5384 6.59264 22.584C5.89402 23.292 5.26572 23.8968 5.19539 23.9344C5.12037 23.9719 5.00315 24 4.92344 24C4.84842 24 4.72651 23.9719 4.65618 23.9344C4.58116 23.9015 4.46863 23.8124 4.40299 23.7374C4.33735 23.6624 4.26702 23.5264 4.24826 23.4373C4.22951 23.3483 4.22482 23.1982 4.24357 23.1091C4.2717 22.9732 4.49676 22.72 5.50016 21.7072C6.17534 21.0273 6.79426 20.4319 6.86928 20.385C6.94899 20.3334 7.09434 20.2959 7.21156 20.2959ZM16.4015 4.03057C16.4812 4.03057 16.7157 4.04933 16.9173 4.07746C17.1142 4.10559 17.4377 4.1853 17.63 4.25563C17.8222 4.32128 18.1035 4.45256 18.2583 4.54165C18.4083 4.63073 18.6568 4.82297 18.8115 4.96364C18.971 5.1043 19.1866 5.34811 19.2992 5.50284C19.407 5.65757 19.5617 5.92483 19.6415 6.103C19.7212 6.27649 19.8196 6.55781 19.8665 6.73599C19.9134 6.92823 19.9415 7.24706 19.9415 7.5659C19.9462 7.95975 19.9181 8.17075 19.8384 8.45676C19.7821 8.66307 19.6508 8.99128 19.5524 9.18352C19.4492 9.37576 19.2664 9.6524 19.1444 9.79775C19.0179 9.94779 18.8022 10.1588 18.6615 10.276C18.5208 10.3932 18.2677 10.562 18.0989 10.6511C17.9301 10.7402 17.6487 10.8621 17.4659 10.9184C17.2549 10.984 16.9548 11.0309 16.6219 11.045C16.2327 11.0637 16.0124 11.0543 15.731 10.9934C15.5153 10.9465 15.1543 10.8152 14.8871 10.6839C14.5354 10.5151 14.3291 10.3792 14.0712 10.14C13.8837 9.96185 13.6352 9.68053 13.5273 9.51173C13.4148 9.34294 13.2694 9.07099 13.1991 8.90219C13.1288 8.7334 13.0444 8.46145 13.0069 8.29265C12.974 8.12386 12.9412 7.78627 12.9412 7.54245C12.9412 7.2455 12.9725 6.97199 13.035 6.72192C13.0866 6.51562 13.1991 6.20147 13.2882 6.01861C13.3726 5.84043 13.5461 5.5638 13.6727 5.40438C13.7993 5.24965 14.029 5.01052 14.1837 4.87455C14.3385 4.74327 14.6245 4.55103 14.8167 4.44787C15.009 4.34941 15.295 4.23219 15.4497 4.1853C15.6044 4.1431 15.8483 4.09153 15.9889 4.07277C16.1296 4.05402 16.3171 4.03526 16.4015 4.03057ZM15.4872 5.68571C15.3512 5.75135 15.1496 5.88732 15.0418 5.98579C14.9339 6.07956 14.7698 6.27649 14.6761 6.41715C14.587 6.55781 14.4698 6.81101 14.4229 6.9798C14.3619 7.20017 14.3432 7.39241 14.3572 7.68312C14.3713 8.01602 14.3994 8.13793 14.5401 8.43332C14.6479 8.66776 14.7933 8.86937 14.9621 9.03817C15.1121 9.18821 15.3466 9.357 15.5435 9.45078C15.8154 9.58206 15.942 9.61489 16.2937 9.63833C16.6219 9.65708 16.7813 9.64302 17.0204 9.57738C17.1892 9.53049 17.4424 9.41796 17.5831 9.32418C17.7238 9.23041 17.9207 9.06161 18.0238 8.94439C18.1223 8.83186 18.263 8.61149 18.338 8.45676C18.413 8.30203 18.4974 8.03946 18.5255 7.87067C18.5677 7.64092 18.5677 7.48619 18.5255 7.23768C18.4927 7.05951 18.4083 6.78288 18.3333 6.62815C18.2536 6.46873 18.0754 6.2296 17.9254 6.07487C17.7706 5.92483 17.5315 5.74666 17.3721 5.67164C17.2174 5.59662 16.9642 5.51222 16.8094 5.48409C16.6547 5.45596 16.4765 5.43251 16.4109 5.4372C16.3453 5.4372 16.1671 5.46533 16.0124 5.50284C15.8576 5.53567 15.6185 5.61537 15.4872 5.68571Z" fill="url(#paint0_radial_68_159)"/>
<defs>
<radialGradient id="paint0_radial_68_159" cx="0" cy="0" r="1" gradientUnits="userSpaceOnUse" gradientTransform="translate(12.0001) rotate(63.4353) scale(26.8327 26.8325)">
<stop stop-color="#88F2E7"/>
<stop offset="0.796943" stop-color="#35ADA1"/>
</radialGradient>
</defs>
</svg>
