<svg width="27" height="32" viewBox="0 0 27 32" fill="none" xmlns="http://www.w3.org/2000/svg">
<path fill-rule="evenodd" clip-rule="evenodd" d="M6.20303 0.0125L20.703 0L26.5468 5.84375V26.6875L26.3905 27.0125C26.3093 27.1938 26.1343 27.4562 26.003 27.5875C25.8718 27.725 25.628 27.9 25.453 27.9813C25.2843 28.0563 24.9655 28.1437 24.3718 28.2188L24.3343 28.5938C24.3093 28.8 24.228 29.1063 24.1468 29.2812C24.0718 29.45 23.9093 29.6875 23.7905 29.8062C23.6718 29.925 23.4218 30.0938 23.2343 30.175C23.0405 30.2625 22.728 30.3438 22.1405 30.3875L22.0593 30.675C22.0155 30.8375 21.878 31.1062 21.7468 31.275C21.5968 31.4812 21.3843 31.6562 20.7655 31.9937L1.85928 32L1.54678 31.8438C1.37803 31.7563 1.13428 31.5938 1.00928 31.4813C0.884277 31.375 0.709277 31.125 0.453027 30.5938L0.415527 23.3438L0.571777 23.1688C0.659277 23.075 0.796777 23 0.878027 23C0.953027 22.9937 1.09053 23.05 1.35928 23.25V30.2812L1.49678 30.5562C1.59053 30.7312 1.72178 30.875 1.85928 30.95C2.06553 31.0563 2.49053 31.0625 11.2843 31.0625C20.2093 31.0625 20.4905 31.0562 20.7155 30.9438C20.8468 30.875 21.003 30.7375 21.0593 30.6313C21.1218 30.525 21.1718 30.425 21.1718 30.4062C21.1718 30.3875 20.5093 30.3687 18.2218 30.3438L18.103 30.1875C18.0343 30.1 17.978 29.9625 17.978 29.875C17.9843 29.7875 18.0218 29.6625 18.0718 29.5938C18.1593 29.475 18.253 29.4688 20.4718 29.4375C22.6655 29.4062 22.7968 29.4 22.9593 29.2812C23.0468 29.2125 23.178 29.0875 23.2405 29C23.3093 28.9125 23.3843 28.6938 23.453 28.1875L6.26553 28.1562L5.95303 28.0187C5.77803 27.9375 5.52178 27.7562 5.37803 27.6125C5.23428 27.4625 5.05303 27.2 4.82803 26.7188L4.80928 17.2812C4.79678 11.1875 4.81553 7.76875 4.85303 7.625C4.89053 7.4875 4.97803 7.375 5.07178 7.325C5.15928 7.2875 5.27178 7.25 5.30928 7.25C5.35303 7.24375 5.46553 7.3 5.73428 7.5L5.76553 26.6187L5.89678 26.7938C5.97178 26.8875 6.10928 27.025 6.19678 27.0938C6.36553 27.2188 6.46553 27.2188 15.6718 27.2188C24.878 27.2188 24.978 27.2188 25.1468 27.0938C25.2343 27.025 25.3718 26.8875 25.578 26.6187L25.6093 6.5L23.528 6.48125C21.578 6.46875 21.4343 6.4625 21.1718 6.3375C21.0155 6.26875 20.7843 6.1125 20.6468 5.99375C20.5155 5.875 20.3343 5.6375 20.078 5.15625L20.0468 0.9375H13.2468C6.59053 0.94375 6.44678 0.94375 6.23428 1.06875C6.11553 1.13125 5.95928 1.28125 5.89053 1.39375C5.77178 1.58125 5.76553 1.73125 5.73428 3.76875C5.70303 5.85625 5.69678 5.95 5.57803 6.0375C5.50928 6.0875 5.37178 6.125 5.26553 6.125C5.15303 6.13125 5.02803 6.075 4.95303 5.99375C4.83428 5.86875 4.82803 5.7625 4.79678 3.125H4.53428C4.38428 3.13125 4.16553 3.1875 4.04678 3.25625C3.92803 3.31875 3.77178 3.46875 3.70303 3.58125C3.57803 3.78125 3.57803 3.8875 3.57803 28.8062L3.70928 28.9813C3.78428 29.075 3.92178 29.2125 4.00928 29.2812C4.17803 29.4062 4.29053 29.4062 16.578 29.4438L16.7218 29.5812C16.7968 29.6562 16.8655 29.7875 16.8655 29.875C16.8655 29.9625 16.8093 30.1 16.6218 30.3438L10.4718 30.3625C4.98428 30.375 4.29053 30.3625 3.98428 30.275C3.79678 30.2188 3.54053 30.1 3.41553 30.0125C3.29053 29.9188 3.12803 29.775 3.05928 29.6875C2.99053 29.6 2.86553 29.3875 2.64053 28.9062L2.60928 4.71875L2.28428 4.7625C2.10303 4.7875 1.88428 4.8625 1.80303 4.91875C1.72178 4.98125 1.59678 5.1125 1.39053 5.38125L1.35928 13.5437C1.32803 21.6063 1.32803 21.7 1.20303 21.7875C1.13428 21.8375 0.996777 21.875 0.890527 21.875C0.778027 21.875 0.646777 21.8188 0.421777 21.5938L0.453027 5.21875L0.590527 4.9375C0.665527 4.78125 0.834277 4.54375 0.965527 4.4125C1.09678 4.275 1.34678 4.1 1.51553 4.01875C1.69053 3.94375 2.01553 3.85625 2.24678 3.83125C2.65928 3.78125 2.65928 3.78125 2.69678 3.5625C2.71553 3.44375 2.82178 3.20625 2.93428 3.0375C3.04678 2.8625 3.25303 2.64375 3.39053 2.55C3.52803 2.45 3.78428 2.325 3.95303 2.275C4.12803 2.225 4.37803 2.1875 4.76553 2.1875L4.82178 1.8C4.84678 1.58125 4.91553 1.29375 4.96553 1.15625C5.01553 1.01875 5.14678 0.79375 5.25928 0.65625C5.37178 0.51875 5.62803 0.31875 5.83428 0.20625L6.20303 0.0125ZM20.9843 3.225C20.9843 4.64375 20.9968 4.875 21.0905 5.06875C21.1655 5.2125 21.2968 5.33125 21.4843 5.425C21.753 5.5625 21.828 5.56875 23.278 5.56875C24.1155 5.56875 24.8093 5.54375 24.8218 5.51875C24.8405 5.49375 23.978 4.6 22.9155 3.5375L20.9843 1.6V3.225ZM22.0468 10.1313L22.2343 10.3188C22.378 10.4625 22.4155 10.5437 22.3843 10.675C22.3655 10.7688 22.2905 10.9 22.2155 10.9625C22.0843 11.0687 21.7405 11.075 15.653 11.0688C9.31553 11.0688 9.22803 11.0625 9.10928 10.9438C9.03428 10.8688 8.97803 10.725 8.97803 10.6C8.97178 10.4375 9.00928 10.3563 9.14053 10.2563C9.31553 10.1313 9.33428 10.1313 22.0468 10.1313ZM15.6405 13.6313C19.7843 13.6313 22.0905 13.65 22.1718 13.6938C22.2405 13.725 22.3218 13.8313 22.3593 13.925C22.403 14.0437 22.403 14.15 22.3593 14.2563C22.328 14.3375 22.228 14.4438 22.1405 14.4875C22.0155 14.55 20.5905 14.5688 15.653 14.5688C9.38428 14.5688 9.32178 14.5688 9.15303 14.4438C9.02178 14.35 8.98428 14.2625 8.98428 14.1C8.98428 13.9625 9.02803 13.8313 9.10928 13.7563C9.22803 13.6313 9.31553 13.6313 15.6405 13.6313ZM22.103 17.1L22.2468 17.2375C22.328 17.325 22.3905 17.4562 22.3905 17.5625C22.3905 17.6625 22.3343 17.8 22.1405 18.0063H15.6718C9.63428 18 9.19678 17.9937 9.09053 17.8937C9.02178 17.8312 8.97803 17.6938 8.97803 17.5688C8.97803 17.4375 9.02178 17.3062 9.09053 17.2437C9.15303 17.1938 9.24053 17.1312 9.29678 17.1125C9.34678 17.0938 12.2468 17.0813 22.103 17.1Z" fill="url(#paint0_radial_12_1403)"/>
<defs>
<radialGradient id="paint0_radial_12_1403" cx="0" cy="0" r="1" gradientUnits="userSpaceOnUse" gradientTransform="translate(13.4811) rotate(67.7898) scale(34.5646 30.2405)">
<stop stop-color="#88F2E7"/>
<stop offset="0.796943" stop-color="#35ADA1"/>
</radialGradient>
</defs>
</svg>
