<svg width="64" height="64" viewBox="0 0 64 64" fill="none" xmlns="http://www.w3.org/2000/svg">
<path d="M32.36 44.901C35.385 44.901 37.8373 42.4487 37.8373 39.4237C37.8373 36.3987 35.385 33.9465 32.36 33.9465C29.335 33.9465 26.8828 36.3987 26.8828 39.4237C26.8828 42.4487 29.335 44.901 32.36 44.901Z" fill="url(#paint0_radial_12_1397)"/>
<path fill-rule="evenodd" clip-rule="evenodd" d="M32 64C27.7968 64.0031 23.6343 63.1775 19.7505 61.5705C15.8666 59.9634 12.3377 57.6064 9.36565 54.6344C6.39355 51.6623 4.03657 48.1334 2.42952 44.2495C0.822474 40.3657 -0.00310476 36.2032 8.77384e-06 32C8.77384e-06 23.4523 3.32884 15.4164 9.37228 9.37227C15.4157 3.32814 23.4523 0 32 0C40.5477 0 48.5836 3.32884 54.6277 9.37227C60.6719 15.4157 64 23.4523 64 32C64 40.5477 60.6712 48.5836 54.6277 54.6277C48.5843 60.6718 40.5477 64 32 64ZM32 3.45976C16.2612 3.45976 3.45977 16.2625 3.45977 32C3.45959 35.748 4.19768 39.4593 5.63189 42.9221C6.33258 44.6138 7.19271 46.23 8.19829 47.7497C8.19776 47.7488 8.19724 47.7479 8.19671 47.747C8.28114 47.5379 8.36809 47.3393 8.4537 47.1559L22.0574 17.8803C23.9425 13.8091 28.0116 11.1251 32.5293 11.1251C36.9967 11.1251 41.1181 13.8021 42.9566 17.8719L56.2478 47.0401C58.9679 42.6704 60.5402 37.5154 60.5402 32C60.5402 16.2625 47.7375 3.45976 32 3.45976ZM52.0255 52.3173C46.8698 57.3996 39.7952 60.5402 32 60.5402C28.252 60.5404 24.5407 59.8023 21.0779 58.3681C17.7719 56.9988 14.7543 55.0206 12.1815 52.5379L27.8173 20.4605C28.66 18.6234 30.4964 17.4799 32.532 17.4799C34.5175 17.4799 36.4048 18.6185 37.2495 20.4556L52.0255 52.3173ZM9.8529 50.0023C9.85332 50.0023 9.85376 50.0022 9.85419 50.0022C9.85166 49.9996 9.84911 49.9971 9.84655 49.9945C9.84867 49.9971 9.85078 49.9997 9.8529 50.0023Z" fill="url(#paint1_radial_12_1397)"/>
<defs>
<radialGradient id="paint0_radial_12_1397" cx="0" cy="0" r="1" gradientUnits="userSpaceOnUse" gradientTransform="translate(32) rotate(63.4349) scale(71.5542)">
<stop stop-color="#88F2E7"/>
<stop offset="0.796943" stop-color="#35ADA1"/>
</radialGradient>
<radialGradient id="paint1_radial_12_1397" cx="0" cy="0" r="1" gradientUnits="userSpaceOnUse" gradientTransform="translate(32) rotate(63.4349) scale(71.5542)">
<stop stop-color="#88F2E7"/>
<stop offset="0.796943" stop-color="#35ADA1"/>
</radialGradient>
</defs>
</svg>
