<svg width="241" height="66" viewBox="0 0 241 66" fill="none" xmlns="http://www.w3.org/2000/svg">
<path d="M93.032 23C92.808 22.344 92.576 21.696 92.336 21.056C92.096 20.416 91.864 19.76 91.64 19.088H84.632C84.408 19.76 84.176 20.424 83.936 21.08C83.712 21.72 83.488 22.36 83.264 23H80.12C80.744 21.224 81.336 19.584 81.896 18.08C82.456 16.576 83 15.152 83.528 13.808C84.072 12.464 84.608 11.184 85.136 9.968C85.664 8.752 86.208 7.552 86.768 6.368H89.624C90.184 7.552 90.728 8.752 91.256 9.968C91.784 11.184 92.312 12.464 92.84 13.808C93.384 15.152 93.936 16.576 94.496 18.08C95.072 19.584 95.672 21.224 96.296 23H93.032ZM88.136 9.584C87.768 10.432 87.344 11.464 86.864 12.68C86.4 13.896 85.912 15.216 85.4 16.64H90.872C90.36 15.216 89.864 13.888 89.384 12.656C88.904 11.424 88.488 10.4 88.136 9.584ZM97.9931 7.136L100.897 6.656V10.448H105.361V12.872H100.897V17.984C100.897 18.992 101.057 19.712 101.377 20.144C101.697 20.576 102.241 20.792 103.009 20.792C103.537 20.792 104.001 20.736 104.401 20.624C104.817 20.512 105.145 20.408 105.385 20.312L105.865 22.616C105.529 22.76 105.089 22.904 104.545 23.048C104.001 23.208 103.361 23.288 102.625 23.288C101.729 23.288 100.977 23.168 100.369 22.928C99.7771 22.688 99.3051 22.344 98.9531 21.896C98.6011 21.432 98.3531 20.88 98.2091 20.24C98.0651 19.584 97.9931 18.84 97.9931 18.008V7.136ZM112.536 23.24C111.672 23.224 110.952 23.128 110.376 22.952C109.816 22.776 109.368 22.528 109.032 22.208C108.696 21.872 108.456 21.464 108.312 20.984C108.184 20.488 108.12 19.928 108.12 19.304V4.856L111.024 4.376V18.752C111.024 19.104 111.048 19.4 111.096 19.64C111.16 19.88 111.264 20.088 111.408 20.264C111.552 20.424 111.744 20.552 111.984 20.648C112.24 20.728 112.56 20.792 112.944 20.84L112.536 23.24ZM119.709 20.96C120.605 20.96 121.285 20.912 121.749 20.816V17.6C121.589 17.552 121.357 17.504 121.053 17.456C120.749 17.408 120.413 17.384 120.045 17.384C119.725 17.384 119.397 17.408 119.061 17.456C118.741 17.504 118.445 17.592 118.173 17.72C117.917 17.848 117.709 18.032 117.549 18.272C117.389 18.496 117.309 18.784 117.309 19.136C117.309 19.824 117.525 20.304 117.957 20.576C118.389 20.832 118.973 20.96 119.709 20.96ZM119.469 10.136C120.429 10.136 121.237 10.256 121.893 10.496C122.549 10.736 123.069 11.072 123.453 11.504C123.853 11.936 124.133 12.464 124.293 13.088C124.469 13.696 124.557 14.368 124.557 15.104V22.712C124.109 22.808 123.429 22.92 122.517 23.048C121.621 23.192 120.605 23.264 119.469 23.264C118.717 23.264 118.029 23.192 117.405 23.048C116.781 22.904 116.245 22.672 115.797 22.352C115.365 22.032 115.021 21.616 114.765 21.104C114.525 20.592 114.405 19.96 114.405 19.208C114.405 18.488 114.541 17.88 114.813 17.384C115.101 16.888 115.485 16.488 115.965 16.184C116.445 15.864 116.997 15.64 117.621 15.512C118.261 15.368 118.925 15.296 119.613 15.296C119.933 15.296 120.269 15.32 120.621 15.368C120.973 15.4 121.349 15.464 121.749 15.56V15.08C121.749 14.744 121.709 14.424 121.629 14.12C121.549 13.816 121.405 13.552 121.197 13.328C121.005 13.088 120.741 12.904 120.405 12.776C120.085 12.648 119.677 12.584 119.181 12.584C118.509 12.584 117.893 12.632 117.333 12.728C116.773 12.824 116.317 12.936 115.965 13.064L115.605 10.712C115.973 10.584 116.509 10.456 117.213 10.328C117.917 10.2 118.669 10.136 119.469 10.136ZM131.258 20.912C132.026 20.912 132.586 20.824 132.938 20.648C133.29 20.456 133.466 20.136 133.466 19.688C133.466 19.272 133.274 18.928 132.89 18.656C132.522 18.384 131.906 18.088 131.042 17.768C130.514 17.576 130.026 17.376 129.578 17.168C129.146 16.944 128.77 16.688 128.45 16.4C128.13 16.112 127.874 15.768 127.682 15.368C127.506 14.952 127.418 14.448 127.418 13.856C127.418 12.704 127.842 11.8 128.69 11.144C129.538 10.472 130.69 10.136 132.146 10.136C132.882 10.136 133.586 10.208 134.258 10.352C134.93 10.48 135.434 10.608 135.77 10.736L135.242 13.088C134.922 12.944 134.514 12.816 134.018 12.704C133.522 12.576 132.946 12.512 132.29 12.512C131.698 12.512 131.218 12.616 130.85 12.824C130.482 13.016 130.298 13.32 130.298 13.736C130.298 13.944 130.33 14.128 130.394 14.288C130.474 14.448 130.602 14.6 130.778 14.744C130.954 14.872 131.186 15.008 131.474 15.152C131.762 15.28 132.114 15.416 132.53 15.56C133.218 15.816 133.802 16.072 134.282 16.328C134.762 16.568 135.154 16.848 135.458 17.168C135.778 17.472 136.01 17.824 136.154 18.224C136.298 18.624 136.37 19.104 136.37 19.664C136.37 20.864 135.922 21.776 135.026 22.4C134.146 23.008 132.882 23.312 131.234 23.312C130.13 23.312 129.242 23.216 128.57 23.024C127.898 22.848 127.426 22.704 127.154 22.592L127.658 20.168C128.09 20.344 128.602 20.512 129.194 20.672C129.802 20.832 130.49 20.912 131.258 20.912ZM147.41 16.784C147.41 15.488 147.114 14.48 146.522 13.76C145.946 13.04 145.01 12.68 143.714 12.68C143.442 12.68 143.154 12.696 142.85 12.728C142.562 12.744 142.274 12.792 141.986 12.872V20.048C142.242 20.224 142.578 20.392 142.994 20.552C143.426 20.696 143.882 20.768 144.362 20.768C145.418 20.768 146.186 20.408 146.666 19.688C147.162 18.968 147.41 18 147.41 16.784ZM150.386 16.736C150.386 17.696 150.258 18.576 150.002 19.376C149.762 20.176 149.41 20.864 148.946 21.44C148.482 22.016 147.898 22.464 147.194 22.784C146.506 23.104 145.722 23.264 144.842 23.264C144.25 23.264 143.706 23.192 143.21 23.048C142.714 22.904 142.306 22.744 141.986 22.568V27.44H139.082V10.856C139.674 10.696 140.402 10.544 141.266 10.4C142.13 10.256 143.042 10.184 144.002 10.184C144.994 10.184 145.882 10.336 146.666 10.64C147.45 10.944 148.114 11.384 148.658 11.96C149.218 12.52 149.642 13.208 149.93 14.024C150.234 14.824 150.386 15.728 150.386 16.736ZM157.795 20.96C158.691 20.96 159.371 20.912 159.835 20.816V17.6C159.675 17.552 159.443 17.504 159.139 17.456C158.835 17.408 158.499 17.384 158.131 17.384C157.811 17.384 157.483 17.408 157.147 17.456C156.827 17.504 156.531 17.592 156.259 17.72C156.003 17.848 155.795 18.032 155.635 18.272C155.475 18.496 155.395 18.784 155.395 19.136C155.395 19.824 155.611 20.304 156.043 20.576C156.475 20.832 157.059 20.96 157.795 20.96ZM157.555 10.136C158.515 10.136 159.323 10.256 159.979 10.496C160.635 10.736 161.155 11.072 161.539 11.504C161.939 11.936 162.219 12.464 162.379 13.088C162.555 13.696 162.643 14.368 162.643 15.104V22.712C162.195 22.808 161.515 22.92 160.603 23.048C159.707 23.192 158.691 23.264 157.555 23.264C156.803 23.264 156.115 23.192 155.491 23.048C154.867 22.904 154.331 22.672 153.883 22.352C153.451 22.032 153.107 21.616 152.851 21.104C152.611 20.592 152.491 19.96 152.491 19.208C152.491 18.488 152.627 17.88 152.899 17.384C153.187 16.888 153.571 16.488 154.051 16.184C154.531 15.864 155.083 15.64 155.707 15.512C156.347 15.368 157.011 15.296 157.699 15.296C158.019 15.296 158.355 15.32 158.707 15.368C159.059 15.4 159.435 15.464 159.835 15.56V15.08C159.835 14.744 159.795 14.424 159.715 14.12C159.635 13.816 159.491 13.552 159.283 13.328C159.091 13.088 158.827 12.904 158.491 12.776C158.171 12.648 157.763 12.584 157.267 12.584C156.595 12.584 155.979 12.632 155.419 12.728C154.859 12.824 154.403 12.936 154.051 13.064L153.691 10.712C154.059 10.584 154.595 10.456 155.299 10.328C156.003 10.2 156.755 10.136 157.555 10.136ZM168.48 16.688C168.48 17.968 168.784 18.976 169.392 19.712C170 20.432 170.84 20.792 171.912 20.792C172.376 20.792 172.768 20.776 173.088 20.744C173.424 20.696 173.696 20.648 173.904 20.6V13.4C173.648 13.224 173.304 13.064 172.872 12.92C172.456 12.76 172.008 12.68 171.528 12.68C170.472 12.68 169.696 13.04 169.2 13.76C168.72 14.48 168.48 15.456 168.48 16.688ZM176.808 22.616C176.232 22.792 175.504 22.952 174.624 23.096C173.76 23.24 172.848 23.312 171.888 23.312C170.896 23.312 170.008 23.16 169.224 22.856C168.44 22.552 167.768 22.12 167.208 21.56C166.664 20.984 166.24 20.296 165.936 19.496C165.648 18.68 165.504 17.768 165.504 16.76C165.504 15.768 165.624 14.872 165.864 14.072C166.12 13.256 166.488 12.56 166.968 11.984C167.448 11.408 168.032 10.968 168.72 10.664C169.408 10.344 170.2 10.184 171.096 10.184C171.704 10.184 172.24 10.256 172.704 10.4C173.168 10.544 173.568 10.704 173.904 10.88V4.856L176.808 4.376V22.616Z" fill="url(#paint0_radial_12_1395)"/>
<path d="M96.672 56.512V60H82.656V37.824H86.688V56.512H96.672ZM105.446 57.28C106.64 57.28 107.547 57.216 108.166 57.088V52.8C107.952 52.736 107.643 52.672 107.238 52.608C106.832 52.544 106.384 52.512 105.894 52.512C105.467 52.512 105.03 52.544 104.582 52.608C104.155 52.672 103.76 52.7893 103.398 52.96C103.056 53.1307 102.779 53.376 102.566 53.696C102.352 53.9947 102.246 54.3787 102.246 54.848C102.246 55.7653 102.534 56.4053 103.11 56.768C103.686 57.1093 104.464 57.28 105.446 57.28ZM105.126 42.848C106.406 42.848 107.483 43.008 108.358 43.328C109.232 43.648 109.926 44.096 110.438 44.672C110.971 45.248 111.344 45.952 111.558 46.784C111.792 47.5947 111.91 48.4907 111.91 49.472V59.616C111.312 59.744 110.406 59.8933 109.19 60.064C107.995 60.256 106.64 60.352 105.126 60.352C104.123 60.352 103.206 60.256 102.374 60.064C101.542 59.872 100.827 59.5627 100.23 59.136C99.6538 58.7093 99.1951 58.1547 98.8538 57.472C98.5338 56.7893 98.3738 55.9467 98.3738 54.944C98.3738 53.984 98.5551 53.1733 98.9178 52.512C99.3018 51.8507 99.8138 51.3173 100.454 50.912C101.094 50.4853 101.83 50.1867 102.662 50.016C103.515 49.824 104.4 49.728 105.318 49.728C105.744 49.728 106.192 49.76 106.662 49.824C107.131 49.8667 107.632 49.952 108.166 50.08V49.44C108.166 48.992 108.112 48.5653 108.006 48.16C107.899 47.7547 107.707 47.4027 107.43 47.104C107.174 46.784 106.822 46.5387 106.374 46.368C105.947 46.1973 105.403 46.112 104.742 46.112C103.846 46.112 103.024 46.176 102.278 46.304C101.531 46.432 100.923 46.5813 100.454 46.752L99.9738 43.616C100.464 43.4453 101.179 43.2747 102.118 43.104C103.056 42.9333 104.059 42.848 105.126 42.848ZM130.38 59.488C129.633 59.68 128.662 59.872 127.468 60.064C126.273 60.2773 124.961 60.384 123.532 60.384C122.188 60.384 121.057 60.192 120.14 59.808C119.244 59.424 118.518 58.8907 117.964 58.208C117.43 57.5253 117.046 56.7147 116.812 55.776C116.577 54.816 116.46 53.7707 116.46 52.64V43.264H120.332V52.032C120.332 53.824 120.588 55.104 121.1 55.872C121.633 56.64 122.55 57.024 123.852 57.024C124.321 57.024 124.812 57.0027 125.324 56.96C125.857 56.9173 126.252 56.864 126.508 56.8V43.264H130.38V59.488ZM135.308 43.808C136.054 43.5947 137.025 43.392 138.22 43.2C139.414 43.008 140.737 42.912 142.188 42.912C143.553 42.912 144.694 43.104 145.612 43.488C146.529 43.8507 147.254 44.3733 147.788 45.056C148.342 45.7173 148.726 46.528 148.94 47.488C149.174 48.4267 149.292 49.4613 149.292 50.592V60H145.42V51.2C145.42 50.304 145.356 49.5467 145.228 48.928C145.121 48.288 144.929 47.776 144.652 47.392C144.396 46.9867 144.033 46.6987 143.564 46.528C143.116 46.336 142.561 46.24 141.9 46.24C141.409 46.24 140.897 46.272 140.364 46.336C139.83 46.4 139.436 46.4533 139.18 46.496V60H135.308V43.808ZM153.099 51.648C153.099 50.4107 153.291 49.2587 153.674 48.192C154.059 47.104 154.603 46.1653 155.307 45.376C156.032 44.5867 156.907 43.968 157.931 43.52C158.955 43.072 160.107 42.848 161.387 42.848C162.965 42.848 164.459 43.136 165.867 43.712L165.035 46.88C164.587 46.688 164.075 46.528 163.499 46.4C162.944 46.272 162.347 46.208 161.707 46.208C160.192 46.208 159.04 46.688 158.251 47.648C157.461 48.5867 157.067 49.92 157.067 51.648C157.067 53.312 157.44 54.6347 158.187 55.616C158.933 56.576 160.192 57.056 161.963 57.056C162.624 57.056 163.275 56.992 163.915 56.864C164.555 56.736 165.109 56.576 165.579 56.384L166.123 59.584C165.696 59.7973 165.045 59.9893 164.171 60.16C163.317 60.3307 162.432 60.416 161.515 60.416C160.085 60.416 158.837 60.2027 157.771 59.776C156.725 59.328 155.851 58.72 155.147 57.952C154.464 57.1627 153.952 56.2347 153.611 55.168C153.269 54.08 153.099 52.9067 153.099 51.648ZM169.12 60V35.808L172.992 35.168V43.456C173.419 43.3067 173.91 43.1787 174.464 43.072C175.04 42.9653 175.606 42.912 176.16 42.912C177.504 42.912 178.614 43.104 179.488 43.488C180.384 43.8507 181.099 44.3733 181.632 45.056C182.166 45.7173 182.539 46.5173 182.752 47.456C182.987 48.3947 183.104 49.44 183.104 50.592V60H179.232V51.2C179.232 50.304 179.168 49.5467 179.04 48.928C178.934 48.288 178.742 47.776 178.464 47.392C178.208 46.9867 177.856 46.6987 177.408 46.528C176.96 46.336 176.406 46.24 175.744 46.24C175.232 46.24 174.71 46.2933 174.176 46.4C173.643 46.5067 173.248 46.6027 172.992 46.688V60H169.12ZM198.849 51.712C198.849 49.984 198.455 48.64 197.665 47.68C196.897 46.72 195.649 46.24 193.921 46.24C193.559 46.24 193.175 46.2613 192.769 46.304C192.385 46.3253 192.001 46.3893 191.617 46.496V56.064C191.959 56.2987 192.407 56.5227 192.961 56.736C193.537 56.928 194.145 57.024 194.785 57.024C196.193 57.024 197.217 56.544 197.857 55.584C198.519 54.624 198.849 53.3333 198.849 51.712ZM202.817 51.648C202.817 52.928 202.647 54.1013 202.305 55.168C201.985 56.2347 201.516 57.152 200.897 57.92C200.279 58.688 199.5 59.2853 198.561 59.712C197.644 60.1387 196.599 60.352 195.425 60.352C194.636 60.352 193.911 60.256 193.249 60.064C192.588 59.872 192.044 59.6587 191.617 59.424V65.92H187.745V43.808C188.535 43.5947 189.505 43.392 190.657 43.2C191.809 43.008 193.025 42.912 194.305 42.912C195.628 42.912 196.812 43.1147 197.857 43.52C198.903 43.9253 199.788 44.512 200.513 45.28C201.26 46.0267 201.825 46.944 202.209 48.032C202.615 49.0987 202.817 50.304 202.817 51.648ZM212.696 57.28C213.89 57.28 214.797 57.216 215.416 57.088V52.8C215.202 52.736 214.893 52.672 214.488 52.608C214.082 52.544 213.634 52.512 213.144 52.512C212.717 52.512 212.28 52.544 211.832 52.608C211.405 52.672 211.01 52.7893 210.648 52.96C210.306 53.1307 210.029 53.376 209.816 53.696C209.602 53.9947 209.496 54.3787 209.496 54.848C209.496 55.7653 209.784 56.4053 210.36 56.768C210.936 57.1093 211.714 57.28 212.696 57.28ZM212.376 42.848C213.656 42.848 214.733 43.008 215.608 43.328C216.482 43.648 217.176 44.096 217.688 44.672C218.221 45.248 218.594 45.952 218.808 46.784C219.042 47.5947 219.16 48.4907 219.16 49.472V59.616C218.562 59.744 217.656 59.8933 216.44 60.064C215.245 60.256 213.89 60.352 212.376 60.352C211.373 60.352 210.456 60.256 209.624 60.064C208.792 59.872 208.077 59.5627 207.48 59.136C206.904 58.7093 206.445 58.1547 206.104 57.472C205.784 56.7893 205.624 55.9467 205.624 54.944C205.624 53.984 205.805 53.1733 206.168 52.512C206.552 51.8507 207.064 51.3173 207.704 50.912C208.344 50.4853 209.08 50.1867 209.912 50.016C210.765 49.824 211.65 49.728 212.568 49.728C212.994 49.728 213.442 49.76 213.912 49.824C214.381 49.8667 214.882 49.952 215.416 50.08V49.44C215.416 48.992 215.362 48.5653 215.256 48.16C215.149 47.7547 214.957 47.4027 214.68 47.104C214.424 46.784 214.072 46.5387 213.624 46.368C213.197 46.1973 212.653 46.112 211.992 46.112C211.096 46.112 210.274 46.176 209.528 46.304C208.781 46.432 208.173 46.5813 207.704 46.752L207.224 43.616C207.714 43.4453 208.429 43.2747 209.368 43.104C210.306 42.9333 211.309 42.848 212.376 42.848ZM226.942 51.584C226.942 53.2907 227.347 54.6347 228.158 55.616C228.968 56.576 230.088 57.056 231.518 57.056C232.136 57.056 232.659 57.0347 233.086 56.992C233.534 56.928 233.896 56.864 234.174 56.8V47.2C233.832 46.9653 233.374 46.752 232.798 46.56C232.243 46.3467 231.646 46.24 231.006 46.24C229.598 46.24 228.563 46.72 227.902 47.68C227.262 48.64 226.942 49.9413 226.942 51.584ZM238.046 59.488C237.278 59.7227 236.307 59.936 235.134 60.128C233.982 60.32 232.766 60.416 231.486 60.416C230.163 60.416 228.979 60.2133 227.934 59.808C226.888 59.4027 225.992 58.8267 225.246 58.08C224.52 57.312 223.955 56.3947 223.549 55.328C223.166 54.24 222.974 53.024 222.974 51.68C222.974 50.3573 223.134 49.1627 223.454 48.096C223.795 47.008 224.286 46.08 224.926 45.312C225.566 44.544 226.344 43.9573 227.262 43.552C228.179 43.1253 229.235 42.912 230.43 42.912C231.24 42.912 231.955 43.008 232.574 43.2C233.192 43.392 233.726 43.6053 234.174 43.84V35.808L238.046 35.168V59.488Z" fill="white"/>
<path d="M32.36 44.901C35.385 44.901 37.8373 42.4487 37.8373 39.4237C37.8373 36.3987 35.385 33.9465 32.36 33.9465C29.335 33.9465 26.8828 36.3987 26.8828 39.4237C26.8828 42.4487 29.335 44.901 32.36 44.901Z" fill="url(#paint1_radial_12_1395)"/>
<path fill-rule="evenodd" clip-rule="evenodd" d="M32 64C27.7968 64.0031 23.6343 63.1775 19.7505 61.5705C15.8666 59.9634 12.3377 57.6064 9.36565 54.6344C6.39355 51.6623 4.03657 48.1334 2.42952 44.2495C0.822474 40.3657 -0.00310476 36.2032 8.77384e-06 32C8.77384e-06 23.4523 3.32884 15.4164 9.37228 9.37227C15.4157 3.32814 23.4523 0 32 0C40.5477 0 48.5836 3.32884 54.6277 9.37227C60.6719 15.4157 64 23.4523 64 32C64 40.5477 60.6712 48.5836 54.6277 54.6277C48.5843 60.6718 40.5477 64 32 64ZM32 3.45976C16.2612 3.45976 3.45977 16.2625 3.45977 32C3.45959 35.748 4.19768 39.4593 5.63189 42.9221C6.33258 44.6138 7.19271 46.23 8.19829 47.7497C8.19776 47.7488 8.19724 47.7479 8.19671 47.747C8.28114 47.5379 8.36809 47.3393 8.4537 47.1559L22.0574 17.8803C23.9425 13.8091 28.0116 11.1251 32.5293 11.1251C36.9967 11.1251 41.1181 13.8021 42.9566 17.8719L56.2478 47.0401C58.9679 42.6704 60.5402 37.5154 60.5402 32C60.5402 16.2625 47.7375 3.45976 32 3.45976ZM52.0255 52.3173C46.8698 57.3996 39.7952 60.5402 32 60.5402C28.252 60.5404 24.5407 59.8023 21.0779 58.3681C17.7719 56.9988 14.7543 55.0206 12.1815 52.5379L27.8173 20.4605C28.66 18.6234 30.4964 17.4799 32.532 17.4799C34.5175 17.4799 36.4048 18.6185 37.2495 20.4556L52.0255 52.3173ZM9.8529 50.0023C9.85332 50.0023 9.85376 50.0022 9.85419 50.0022C9.85166 49.9996 9.84911 49.9971 9.84655 49.9945C9.84867 49.9971 9.85078 49.9997 9.8529 50.0023Z" fill="url(#paint2_radial_12_1395)"/>
<defs>
<radialGradient id="paint0_radial_12_1395" cx="0" cy="0" r="1" gradientUnits="userSpaceOnUse" gradientTransform="translate(160.5 1) rotate(36.2384) scale(99.8061 118.968)">
<stop stop-color="#88F2E7"/>
<stop offset="0.796943" stop-color="#35ADA1"/>
</radialGradient>
<radialGradient id="paint1_radial_12_1395" cx="0" cy="0" r="1" gradientUnits="userSpaceOnUse" gradientTransform="translate(32) rotate(63.4349) scale(71.5542)">
<stop stop-color="#88F2E7"/>
<stop offset="0.796943" stop-color="#35ADA1"/>
</radialGradient>
<radialGradient id="paint2_radial_12_1395" cx="0" cy="0" r="1" gradientUnits="userSpaceOnUse" gradientTransform="translate(32) rotate(63.4349) scale(71.5542)">
<stop stop-color="#88F2E7"/>
<stop offset="0.796943" stop-color="#35ADA1"/>
</radialGradient>
</defs>
</svg>
